<?xml version="1.0" encoding="iso-8859-1"?>
<!-- Generator: Adobe Illustrator 19.0.0, SVG Export Plug-In . SVG Version: 6.00 Build 0)  -->
<svg version="1.1" id="Capa_1" xmlns="http://www.w3.org/2000/svg" xmlns:xlink="http://www.w3.org/1999/xlink" x="0px" y="0px"
	 viewBox="0 0 512 512" style="enable-background:new 0 0 512 512;" xml:space="preserve">
<g>
	<g>
		<g>
			<path d="M250.514,326.291L11.447,511.991H500.59L261.486,326.291C258.279,323.723,253.721,323.723,250.514,326.291z"/>
			<path d="M261.486,1.911c-3.193-2.537-7.714-2.537-10.907,0l-21.093,16.366h53.029L261.486,1.911z"/>
			<path d="M361.911,322.46c-2.577,2.047-6.056,2.552-9.108,1.32c-3.052-1.232-5.207-4.008-5.642-7.271
				c-0.435-3.263,0.918-6.507,3.541-8.495l152.475-118.4l-64.32-49.984v70.647c0,5.049-4.093,9.143-9.143,9.143
				s-9.143-4.093-9.143-9.143V45.706c0-5.049-4.093-9.143-9.143-9.143H100.571c-5.049,0-9.143,4.093-9.143,9.143v164.571
				c0,5.049-4.093,9.143-9.143,9.143c-5.049,0-9.143-4.093-9.143-9.143V139.63l-64.32,49.984l152.21,118.19
				c2.582,2.002,3.9,5.23,3.457,8.467c-0.443,3.237-2.579,5.992-5.605,7.227c-3.025,1.235-6.479,0.762-9.061-1.24L0,205.916v291.822
				l239.333-185.883c9.803-7.637,23.541-7.637,33.344,0L512,497.738V205.916L361.911,322.46z M292.965,204.983
				c-18.091,16.599-45.008,19.156-65.901,6.26c-20.893-12.896-30.672-38.103-23.944-61.715c6.729-23.612,28.328-39.877,52.88-39.823
				c5.049,0,9.143,4.093,9.143,9.143c0,5.049-4.093,9.143-9.143,9.143c-20.198,0-36.571,16.374-36.571,36.571
				c0,20.198,16.374,36.571,36.571,36.571c20.198,0,36.571-16.374,36.571-36.571c0-5.049,4.093-9.143,9.143-9.143
				s9.143,4.093,9.143,9.143v36.571c0,10.099,8.187,18.286,18.286,18.286c10.099,0,18.286-8.187,18.286-18.286v-36.571
				c0-50.495-40.934-91.429-91.429-91.429s-91.429,40.934-91.429,91.429c0,50.495,40.934,91.429,91.429,91.429
				c5.049,0,9.143,4.093,9.143,9.143c0,5.049-4.093,9.143-9.143,9.143c-60.594,0-109.714-49.121-109.714-109.714
				c0-60.594,49.121-109.714,109.714-109.714c60.594,0,109.714,49.121,109.714,109.714v36.571
				c0.06,19.437-15.134,35.506-34.544,36.533C311.76,238.695,294.956,224.318,292.965,204.983z"/>
		</g>
	</g>
</g>
<g>
</g>
<g>
</g>
<g>
</g>
<g>
</g>
<g>
</g>
<g>
</g>
<g>
</g>
<g>
</g>
<g>
</g>
<g>
</g>
<g>
</g>
<g>
</g>
<g>
</g>
<g>
</g>
<g>
</g>
</svg>
